<svg xmlns="http://www.w3.org/2000/svg" x="0px" y="0px"
width="64" height="64"
viewBox="0 0 172 172"
style=" fill:#000000;"><defs><linearGradient x1="51.86606" y1="128.25556" x2="51.86606" y2="139.01094" gradientUnits="userSpaceOnUse" id="color-1_nuxCThBVG3it_gr1"><stop offset="0" stop-color="#8ab4ff"></stop><stop offset="1" stop-color="#e492ff"></stop></linearGradient><linearGradient x1="132.50181" y1="116.70469" x2="132.50181" y2="125.28319" gradientUnits="userSpaceOnUse" id="color-2_nuxCThBVG3it_gr2"><stop offset="0" stop-color="#8ab4ff"></stop><stop offset="1" stop-color="#e492ff"></stop></linearGradient><linearGradient x1="96.75" y1="43.11556" x2="96.75" y2="53.11038" gradientUnits="userSpaceOnUse" id="color-3_nuxCThBVG3it_gr3"><stop offset="0" stop-color="#8ab4ff"></stop><stop offset="1" stop-color="#e492ff"></stop></linearGradient><linearGradient x1="88.6875" y1="102.63831" x2="88.6875" y2="111.65756" gradientUnits="userSpaceOnUse" id="color-4_nuxCThBVG3it_gr4"><stop offset="0" stop-color="#8ab4ff"></stop><stop offset="1" stop-color="#e492ff"></stop></linearGradient><linearGradient x1="86" y1="19.72625" x2="86" y2="151.24444" gradientUnits="userSpaceOnUse" id="color-5_nuxCThBVG3it_gr5"><stop offset="0" stop-color="#1a6dff"></stop><stop offset="1" stop-color="#c822ff"></stop></linearGradient></defs><g fill="none" fill-rule="nonzero" stroke="none" stroke-width="1" stroke-linecap="butt" stroke-linejoin="miter" stroke-miterlimit="10" stroke-dasharray="" stroke-dashoffset="0" font-family="none" font-weight="none" font-size="none" text-anchor="none" style="mix-blend-mode: normal"><path d="M0,172v-172h172v172z" fill="#ffffff"></path><g><path d="M58.37519,144.90194c2.10162,-1.96188 3.43731,-4.73538 3.43731,-7.83944c0,-5.93669 -4.81331,-10.75 -10.75,-10.75c-3.88344,0 -7.25625,2.07744 -9.14556,5.16537z" fill="url(#color-1_nuxCThBVG3it_gr1)"></path><path d="M138.69113,116.83369c-1.24969,-0.7955 -2.72512,-1.27119 -4.31612,-1.27119c-4.45319,0 -8.0625,3.60931 -8.0625,8.0625c0,3.21425 1.89469,5.96625 4.61444,7.26162z" fill="url(#color-2_nuxCThBVG3it_gr2)"></path><circle cx="36" cy="18" transform="scale(2.6875,2.6875)" r="2" fill="url(#color-3_nuxCThBVG3it_gr3)"></circle><circle cx="33" cy="40" transform="scale(2.6875,2.6875)" r="2" fill="url(#color-4_nuxCThBVG3it_gr4)"></circle><path d="M145.63563,93.138l-0.09675,-1.47006l-20.74481,-11.42456l-6.54406,3.61469v-5.92862c5.94206,-0.20963 10.71775,-5.0955 10.75,-11.08325c4.63056,-1.19325 8.0625,-5.40994 8.0625,-10.40869c0,-5.92862 -4.82137,-10.75 -10.75,-10.75h-9.92763c-3.28681,-9.30412 -10.62369,-16.41794 -19.63487,-19.62412v-0.53213c0,-5.18688 -4.21937,-9.40625 -9.40625,-9.40625c-3.66844,0 -6.82088,2.13387 -8.37156,5.20569c-3.06375,-2.924 -7.82869,-3.52331 -11.54819,-1.13412c-2.87294,1.83825 -4.37525,4.99069 -4.29462,8.17537c-3.89956,-0.86 -8.07056,0.80356 -10.1695,4.43975c-1.25775,2.17688 -1.591,4.71119 -0.94063,7.13531c0.24456,0.91106 0.65306,1.7415 1.1395,2.52088c-1.18787,0.33594 -2.31125,0.90569 -3.30294,1.6985c-1.96188,1.5695 -3.19544,3.80819 -3.47225,6.30756c-0.2795,2.49669 0.43269,4.95306 2.00219,6.91225c0.30369,0.37894 0.65306,0.70681 1.00512,1.032c-2.23869,1.72269 -3.70337,4.39406 -3.70337,7.42556c0,2.63375 1.09381,5.0095 2.84338,6.71875c-1.74956,1.70925 -2.84338,4.085 -2.84338,6.71875c0,0.54019 0.07256,1.06425 0.15856,1.58025l-19.37956,10.72312l-0.09944,1.462c-0.08062,1.16369 -0.12631,2.30319 -0.12631,3.40506c0.00269,32.766 26.80781,59.42331 59.75925,59.42331c32.95144,0 59.75656,-26.65731 59.75656,-59.42331c0,-1.07231 -0.04569,-2.17956 -0.12094,-3.31369zM87.34375,21.5c1.9135,0 3.50987,1.34106 3.92106,3.13094c-1.72269,-0.28756 -3.483,-0.44344 -5.27287,-0.44344c-0.15319,0 -0.30906,0 -0.46225,0.00269c-0.67994,0.01075 -1.34375,0.08063 -2.01025,0.13438c0.51331,-1.63131 2.02369,-2.82456 3.82431,-2.82456zM70.32381,24.71963c0.67188,-0.43 1.42169,-0.63425 2.16613,-0.63425c1.30881,0 2.59075,0.64231 3.36206,1.80869c-2.54237,0.87613 -4.93156,2.09088 -7.14875,3.56094c-0.60738,-1.72537 0.01612,-3.70606 1.62056,-4.73537zM85.60494,29.56519c12.18781,-0.23112 22.919,7.86363 26.23,19.54081l0.55363,1.9565h13.92394c2.96431,0 5.375,2.41069 5.375,5.375c0,2.96431 -2.41069,5.375 -5.375,5.375h-13.4375v5.375h10.70969c-0.20963,2.99656 -2.6875,5.375 -5.73513,5.375h-4.97456v14.26256l-7.5465,4.16562l-19.44675,-10.75l-19.4575,10.75l-7.29925,-4.03125v-29.53025c0,-15.1575 11.87875,-27.65437 26.47994,-27.864zM57.61463,35.49919c0.74444,-1.29269 2.10431,-2.01562 3.49912,-2.01562c0.68263,0 1.37331,0.172 2.00756,0.5375l0.03494,0.01881c-1.83287,1.90275 -3.4185,4.04469 -4.76494,6.35056c-0.5375,-0.50794 -0.98094,-1.10187 -1.17712,-1.83556c-0.2795,-1.03737 -0.13706,-2.12312 0.40044,-3.05569zM51.72363,51.06787c0.11825,-1.06694 0.64769,-2.02906 1.48887,-2.70362c0.58588,-0.46494 1.28194,-0.70413 2.00487,-0.7955c-0.731,2.39994 -1.17444,4.92081 -1.35181,7.51425c-0.48912,-0.25531 -0.92988,-0.60469 -1.28463,-1.05081c-0.67187,-0.84119 -0.97556,-1.89469 -0.85731,-2.96431zM53.75,62.05975v7.568c-1.56144,-0.55631 -2.6875,-2.03444 -2.6875,-3.784c0,-1.74956 1.12606,-3.22769 2.6875,-3.784zM53.75,75.49725v7.568c-1.56144,-0.55631 -2.6875,-2.03444 -2.6875,-3.784c0,-1.74956 1.12606,-3.22769 2.6875,-3.784zM64.39519,146.028c-10.05394,-4.34569 -18.50612,-11.63419 -24.32187,-20.75556c2.97238,-2.76812 6.89613,-4.33494 10.98919,-4.33494c8.89294,0 16.125,7.23206 16.125,16.125c0,3.20888 -1.01587,6.31563 -2.79231,8.9655zM125.39875,133.59831c-2.8165,-2.52625 -4.46125,-6.11137 -4.46125,-9.97331c0,-7.40944 6.02806,-13.4375 13.4375,-13.4375c1.38138,0 2.71437,0.22306 3.999,0.6235c-2.41069,8.66181 -6.91762,16.4475 -12.97525,22.78731zM139.54844,105.56231c-1.66894,-0.47838 -3.39431,-0.74981 -5.17344,-0.74981c-10.37375,0 -18.8125,8.44144 -18.8125,18.8125c0,5.26481 2.19031,10.15606 5.94206,13.67669c-9.53794,8.19956 -21.93269,13.19831 -35.50456,13.19831c-5.72437,0 -11.23913,-0.89494 -16.42331,-2.53162c1.935,-3.2895 2.98581,-7.05738 2.98581,-10.90588c0,-11.85456 -9.64544,-21.5 -21.5,-21.5c-5.031,0 -9.85506,1.79256 -13.68475,4.95844c-3.65231,-7.25894 -5.762,-15.4155 -5.762,-24.06925c0,-0.52138 0.01075,-1.0535 0.03494,-1.591l15.31875,-8.47637l19.45212,10.75l19.4575,-10.75l19.44675,10.75l19.46825,-10.75269l15.55525,8.56775c0.01881,0.50794 0.03225,1.0105 0.03225,1.50231c0,3.10944 -0.3225,6.14094 -0.83312,9.11062z" fill="url(#color-5_nuxCThBVG3it_gr5)"></path></g></g></svg>